<svg xmlns="http://www.w3.org/2000/svg" xmlns:xlink="http://www.w3.org/1999/xlink" viewBox="0 0 793.705 320.447">
    <defs>
        <clipPath id="d" clipPathUnits="userSpaceOnUse">
            <path d="M419.377 433.891h93.175V559.35h-93.175Zm27.654 24.663c.017 13.012-.294 26.125.174 39.123 10.376-.11 21.841.942 30.576-5.737 4.008-4.101 5.83-8.106 5.808-13.899-.018-4.885-1.216-9.726-4.759-13.273-7.653-7.665-21.883-6.29-31.799-6.214" class="powerclip"/>
        </clipPath>
        <clipPath id="f" clipPathUnits="userSpaceOnUse">
            <path d="M505.347 462.214h94.677v99.064h-94.677Zm42.911 24.385c-5.658 1.877-9.511 4.82-12.154 10.325-3.85 8.021-3.869 19.511-.722 27.779 1.857 4.879 5.141 9.062 10.012 11.17 3.597 1.557 7.426 1.763 11.237 1.019 5.263-1.511 9.104-4.108 11.833-8.968 4.269-7.602 4.535-18.78 1.992-27.004-1.617-5.232-4.759-9.88-9.672-12.502-4.048-2.159-8.068-2.223-12.526-1.819" class="powerclip"/>
        </clipPath>
        <clipPath id="h" clipPathUnits="userSpaceOnUse">
            <path d="M670.706 462.332h94.302v98.915h-94.302zm43.084 24.246c-5.439 1.716-9.278 4.331-12.057 9.448-4.138 7.621-4.553 18.874-1.919 27.06 1.631 5.071 4.581 9.673 9.426 12.177 3.898 2.015 8.057 2.247 12.339 1.673 5.191-1.424 9.134-4.136 11.89-8.847 4.311-7.369 4.659-18.576 2.331-26.688-1.574-5.486-4.847-10.426-10.028-13.07-3.925-2.002-7.721-2.048-11.982-1.753" class="powerclip"/>
        </clipPath>
        <clipPath id="i" clipPathUnits="userSpaceOnUse">
            <path d="M818.629 462.179h86.546v98.855H818.63Zm43.627 54.003c-5.077.526-10.424 1.15-13.931 5.337-1.763 2.104-2.689 4.783-2.421 7.535.262 2.7 1.678 5.068 3.829 6.699 3.677 2.788 8.26 2.976 12.659 2.546 5.799-1.773 10.545-5.15 13.481-10.598 2.155-4 2.321-7.314 2.264-11.704-5.286-.018-10.605-.163-15.881.185" class="powerclip"/>
        </clipPath>
        <linearGradient id="a">
            <stop offset="0" stop-color="#fb196d"/>
            <stop offset=".353" stop-color="#ff314c"/>
            <stop offset=".521" stop-color="#ff5334"/>
            <stop offset="1" stop-color="#ff8c12"/>
        </linearGradient>
        <linearGradient xlink:href="#a" id="b" x1="139.31" x2="354.365" y1="408.886" y2="589.339" gradientTransform="translate(-106.47 -338.889)" gradientUnits="userSpaceOnUse"/>
    </defs>
    <rect width="238.787" height="150.468" x="21.105" y="46.685" fill="#1d142a" ry="75.234"/>
    <path fill="url(#b)" d="M136.45.047c-3.623.116-7.142.448-10.508 1.02-17.313.747-35.122 7.3-50.555 17.019a125 125 0 0 0-17.195 13.013 113 113 0 0 0-7.399 7.329c-7.283 7.924-13.167 16.615-17.799 25.947-4.63 9.331-8.008 19.303-10.279 29.785-1.079 4.98-2.225 10.389-2.334 15.502-2.268 9.316-2.059 26.939-2.338 37.055-.796 28.908-.266 62.268-4.963 90.486a223 223 0 0 1-5.396 23.365c-3.66 12.373-12.17 28.173-4.725 40.621 3.001 5.018 8.539 8.212 14.147 9.465 7.8 1.744 15.647-.625 22.18-4.924 7.228-4.757 15.563-13.855 24.984-12.017 10.484 2.045 14.092 14.956 22.115 20.652.555.547.49.501 1.191 1.082 2.806 2.323 7.217 3.972 10.752 4.604 20.651 3.694 24.955-19.597 40.391-20.766 10.138-.767 16.345 9.143 23.188 14.945 5.293 4.487 11.637 6.685 18.58 6.008 12.117-1.18 17.28-10.658 24.255-19.164 18.626-22.709 29.503 12.775 55.053 9.943 6.671-.739 13.106-3.549 17.278-8.92 8.709-11.21-.38-30-3.993-41.833a235 235 0 0 1-5.23-20.467c-6.051-28.84-5.083-60.097-5.62-89.469-.238-13.032-.475-26.35-2.286-39.277-.022-3.68-.66-7.622-1.25-11.254-4.947-30.486-21.972-59.212-47.266-77.139C192.268 9.078 161.808-.764 136.45.047m-56.282 64.51q2.233.062 4.424.345c4.376.566 8.698 1.945 12.963 3.055 15.797 7.392 27.864 17.472 33.896 34.33.873 2.44 1.539 4.97 2.19 7.478l15.61.032c4.887-16.608 13.554-29.87 29.087-38.286a54 54 0 0 1 41.553-4.251c14.386 4.426 26.18 14.008 33.197 27.359 2.674 5.084 4.867 10.786 5.72 16.488 1.943 15.557-1.374 30.821-11.15 43.336-8.84 11.32-22.552 19.485-36.857 21.188-14.916 1.776-29.041-2.003-40.863-11.35-13.018-10.293-19.678-24.777-21.442-41.039l-.052-.492-14.028-.06c-1.617 16.613-5.693 23.372-15.449 36.523-1.855 1.713-3.67 3.49-5.639 5.072-11.66 9.37-25.959 13.808-40.873 12.127a54.93 54.93 0 0 1-37.33-20.865c-10.697-13.508-13.396-28.792-11.478-45.584 3.182-10.367 6.61-18.788 12.537-25.881a47 47 0 0 1 3.875-4.102 51 51 0 0 1 4.58-3.812 61 61 0 0 1 5.396-3.551c5.031-2.956 10.751-5.262 16.672-6.64.239-.056.482-.085.721-.137a55 55 0 0 1 7.818-1.155 49 49 0 0 1 4.922-.129m123.272 13.86a43 43 0 0 0-4.297.284c-23.214 2.7-39.81 23.756-37.014 46.959 2.798 23.203 23.924 39.71 47.115 36.814 23.053-2.878 39.442-23.85 36.66-46.916-2.607-21.623-21.143-37.457-42.464-37.14m-125.274.028q-2.146.028-4.326.277c-23.344 2.676-40.074 23.807-37.324 47.143s23.935 39.999 47.262 37.174c23.222-2.812 39.792-23.88 37.054-47.111-2.567-21.78-21.198-37.765-42.666-37.483m9.946 23.807c9.821-.422 18.56 6.662 19.994 16.601 1.53 10.602-5.827 20.437-16.43 21.96-10.592 1.52-20.414-5.83-21.943-16.42-1.53-10.592 5.812-20.419 16.402-21.956a20 20 0 0 1 1.977-.185m106.912.035c9.002.44 16.746 7.184 18.105 16.455 1.553 10.594-5.83 20.424-16.437 21.885-10.478 1.443-20.16-5.83-21.694-16.295s5.654-20.212 16.106-21.836a19.4 19.4 0 0 1 3.92-.21m-71.926 64.775c9.322-.07 6.832 8.87 13.838 11.74 8.913 3.652 12.863-6.706 19.644-9.376 1.37-.54 2.998-.786 4.33-.006 1.651.968 2.751 3.62 3.092 5.437.652 3.477-1.466 6.264-3.392 8.899-1.58 1.55-3.149 2.996-4.98 4.242-5.526 3.758-12.374 5.386-18.96 4.021-6.556-1.358-12.77-5.67-16.326-11.35-1.577-2.518-2.664-5.627-1.838-8.601.712-2.563 2.424-3.687 4.592-5.006"/>
    <defs>
        <linearGradient id="c" x1="474.079" x2="432.851" y1="438.992" y2="555.599" gradientUnits="userSpaceOnUse">
            <stop offset="0" stop-color="#ff6a27"/>
            <stop offset="1" stop-color="#ff3443"/>
        </linearGradient>
    </defs>
    <path fill="url(#c)" d="m424.424 438.997 26.32-.029c14.615-.013 30.86-1.392 43.133 8.109 7.759 6.007 12.05 15.036 13.274 24.649 1.358 10.663-.645 22.414-7.429 31.002-7.612 9.634-17.868 12.822-29.624 14.213q-11.478.383-22.962.274a2889 2889 0 0 0-.022 37.124c-7.562-.186-15.169-.002-22.737.01z" clip-path="url(#d)" transform="translate(-106.47 -338.889)"/>
    <defs>
        <linearGradient id="e" x1="570.412" x2="534.445" y1="471.865" y2="551.344" gradientUnits="userSpaceOnUse">
            <stop offset="0" stop-color="#ff7225"/>
            <stop offset="1" stop-color="#ff3f3c"/>
        </linearGradient>
    </defs>
    <path fill="url(#e)" d="M551.465 467.214c10.79-.013 20.817 3.056 29.05 10.222 9.002 7.836 13.641 19.013 14.384 30.776.772 12.208-1.946 24.429-10.211 33.749-8.335 9.399-18.72 13.584-31.062 14.306-10.652.223-21.057-3.024-29.151-10.063-8.887-7.729-13.312-18.814-14.009-30.406-.771-12.818 2.134-25.667 10.918-35.392 8.007-8.866 18.408-12.565 30.081-13.192" clip-path="url(#f)" transform="translate(-106.47 -338.889)"/>
    <defs>
        <linearGradient id="g" x1="753.743" x2="681.224" y1="488.996" y2="534.147" gradientUnits="userSpaceOnUse">
            <stop offset="0" stop-color="#ff911e"/>
            <stop offset="1" stop-color="#ff7924"/>
        </linearGradient>
    </defs>
    <path fill="url(#g)" d="M711.494 467.659c10.147-1.024 19.881.221 28.705 5.633 9.579 5.876 15.957 15.418 18.413 26.312 2.852 12.648 1.508 27.433-5.661 38.465-6.723 10.345-16.683 15.329-28.454 17.738-10.819 1.323-21.553-.206-30.683-6.424-9.459-6.443-15.244-16.112-17.22-27.315-2.29-12.981-.281-27.415 7.544-38.261 6.769-9.382 16.126-14.28 27.356-16.148" clip-path="url(#h)" transform="translate(-106.47 -338.889)"/>
    <path fill="#feb017" d="M860.836 467.219a82 82 0 0 1 1.723-.035c10.171-.126 22.243 2.076 29.659 9.602 3.387 3.438 5.572 7.764 6.653 12.445 2.035 8.814 1.087 19.03 1.064 28.027l.017 37.177-21.007-.051c-.036-4.055.035-8.115.057-12.17-1.603 1.802-3.239 3.64-5.042 5.247-6.767 6.033-15.067 9.173-24.171 8.478-8.753-.669-16.073-4.172-21.821-10.892-2.904-4.822-4.364-9.954-4.339-15.576.03-6.59 1.935-12.7 6.788-17.352 11.689-11.204 32.759-9.158 47.598-9.063.008-2.288.197-4.708-.107-6.975-.448-3.344-2.701-6.68-5.397-8.627-3.498-2.526-8.141-3.231-12.328-2.427-5.476 1.051-8.709 4.312-11.781 8.65-6.935.005-13.871.065-20.802-.184.329-5.46 1.869-9.851 5.43-14.091 6.947-8.272 17.385-11.47 27.806-12.183" clip-path="url(#i)" transform="translate(-106.47 -338.889)"/>
    <defs>
        <linearGradient id="j" x1="638.522" x2="592.978" y1="445.323" y2="547.177" gradientTransform="translate(-106.47 -338.889)" gradientUnits="userSpaceOnUse">
            <stop offset="0" stop-color="#ff841e"/>
            <stop offset="1" stop-color="#ff5930"/>
        </linearGradient>
    </defs>
    <path fill="url(#j)" d="m498.47 100.081 22.126.02v115.382l-22.135-.063z"/>
    <path fill="#fe7824" d="m536.333 100.07 21.848.036c-.403 38.445 0 76.941.048 115.391-7.28-.096-14.57-.02-21.85-.014-.536-38.44-.034-76.963-.046-115.413"/>
    <defs>
        <linearGradient id="k" x1="826.035" x2="762.036" y1="500.02" y2="516.334" gradientTransform="translate(-106.47 -338.889)" gradientUnits="userSpaceOnUse">
            <stop offset="0" stop-color="#ffa31a"/>
            <stop offset="1" stop-color="#ff8c22"/>
        </linearGradient>
    </defs>
    <path fill="url(#k)" d="M707.117 128.267c1.86-.069 3.782.231 5.634.413l.026 21.458c-2.101-.393-4.274-.738-6.416-.723a19.77 19.77 0 0 0-13.947 5.956 22.5 22.5 0 0 0-5.753 10.462c-2.42 9.718-1.06 38.102-1.004 49.678l-21.841-.035-.036-5.8-.07-79.178 21.838.064-.12 12.23a31 31 0 0 1 2-3.052c4.98-6.607 11.445-10.353 19.689-11.473"/>
</svg>